<?xml version="1.0" standalone="no"?>
<!DOCTYPE svg PUBLIC "-//W3C//DTD SVG 20010904//EN"
 "http://www.w3.org/TR/2001/REC-SVG-20010904/DTD/svg10.dtd">
<svg version="1.0" xmlns="http://www.w3.org/2000/svg"
 width="1024.000000pt" height="1024.000000pt" viewBox="0 0 1024.000000 1024.000000"
 preserveAspectRatio="xMidYMid meet">

<g transform="translate(0.000000,1024.000000) scale(0.100000,-0.100000)"
fill="#000000" stroke="none">
<path d="M4940 8310 c-226 -18 -574 -107 -806 -207 -357 -154 -735 -451 -987
-776 -283 -364 -447 -754 -507 -1200 -18 -141 -13 -468 11 -608 47 -282 106
-470 225 -714 120 -247 266 -453 473 -667 230 -239 486 -419 787 -556 372
-170 830 -243 1264 -203 400 38 793 178 1126 402 209 140 438 352 578 532 247
320 357 526 452 857 67 232 95 407 101 635 7 237 -7 385 -51 558 -119 464
-287 780 -609 1144 -122 140 -167 180 -337 307 -269 202 -551 336 -870 414
-346 85 -553 105 -850 82z m346 -123 c2 -1 4 -1058 5 -2347 l2 -2345 -44 -3
c-24 -2 -81 -1 -125 3 l-82 7 -3 1876 c-5 2643 -5 2785 3 2804 6 16 20 17 124
13 65 -3 119 -6 120 -8z m504 -172 c123 -21 163 -31 275 -70 55 -19 146 -48
203 -64 57 -17 111 -35 120 -40 14 -9 -7 -34 -142 -163 -88 -84 -293 -287
-455 -450 -163 -164 -301 -298 -305 -298 -5 0 -3 7 4 15 10 11 15 116 21 403
5 213 14 409 19 435 6 27 10 79 10 116 0 64 14 102 44 123 18 12 115 9 206 -7z
m-880 -120 l0 -95 -217 1 c-201 1 -521 13 -463 17 35 3 103 25 185 59 137 59
166 66 360 93 72 10 131 18 133 19 1 0 2 -42 2 -94z m-4 -432 c-4 -11 -111
-13 -550 -12 -300 0 -549 -2 -554 -5 -20 -12 -29 23 -36 134 l-6 115 318 0
c174 -1 431 1 570 3 l252 5 2 41 c1 22 4 -29 5 -114 2 -85 1 -160 -1 -167z
m1692 233 l91 -60 -41 -45 c-266 -292 -515 -551 -897 -931 l-328 -325 4 50 c2
28 7 107 12 177 9 155 3 146 218 364 487 496 724 731 771 766 29 22 56 46 59
54 7 18 1 21 111 -50z m-2967 -321 c5 -121 10 -428 12 -683 l2 -462 -132 0
c-99 0 -133 3 -134 13 -6 94 -4 750 3 929 l9 236 85 84 c47 45 95 98 106 117
l21 34 9 -24 c5 -13 14 -123 19 -244z m3269 -552 l0 -600 -132 5 c-73 2 -133
5 -133 6 0 0 1 268 3 593 l4 592 40 30 c22 16 52 46 65 67 l25 36 64 -65 64
-65 0 -599z m-2084 382 l101 0 7 -162 c3 -90 3 -313 0 -498 l-7 -335 -441 0
c-243 0 -471 3 -508 7 l-68 6 0 74 c0 41 4 83 10 93 5 10 35 26 65 35 48 16
74 17 198 9 78 -5 221 -9 317 -9 164 0 178 2 223 24 79 39 93 90 56 209 -31
103 -50 136 -90 165 -41 30 -59 34 -60 15 -2 -39 -18 37 -18 89 -1 102 28 93
-315 93 -165 0 -318 3 -340 7 l-38 6 5 64 c10 125 9 125 447 116 195 -4 400
-8 456 -8z m2402 -173 c27 -43 74 -126 104 -187 75 -151 179 -471 190 -585 l3
-35 -207 -3 -208 -2 0 87 c-1 189 22 721 32 770 13 64 18 62 86 -45z m-716
-455 l3 -357 -368 0 -368 0 31 44 c17 24 52 63 78 87 26 25 65 72 87 104 37
57 167 189 265 270 25 21 47 43 50 49 11 27 107 133 160 177 l55 46 2 -31 c1
-17 4 -192 5 -389z m-2139 313 l117 0 0 -115 0 -115 -344 0 -343 0 -7 38 c-3
20 -6 75 -6 121 l0 84 233 -6 c127 -4 285 -7 350 -7z m-1108 -657 c-3 -10 -42
-13 -148 -13 l-144 0 4 55 c5 60 18 98 86 252 47 106 92 191 111 208 6 6 24
27 39 48 16 20 33 35 38 32 5 -4 10 0 11 7 2 7 4 -120 5 -282 2 -162 1 -300
-2 -307z m1684 -148 c6 -7 -48 -96 -97 -161 -34 -46 -55 -65 -77 -69 -16 -3
-475 -4 -1020 -3 l-990 3 -2 115 c0 63 0 117 2 120 3 6 2178 0 2184 -5z m1562
5 l1040 0 -3 -117 -3 -118 -410 -5 c-225 -3 -473 -1 -550 3 -77 5 -366 6 -642
2 l-503 -6 0 126 c0 112 2 126 16 121 9 -3 483 -6 1055 -6z m-1587 -311 c3
-17 6 -87 6 -154 l0 -122 -344 -347 c-190 -190 -350 -346 -357 -346 -14 0
-437 413 -461 450 -13 20 -14 35 -7 70 4 25 11 95 15 157 l7 112 91 -82 c50
-45 150 -142 222 -216 l132 -135 48 41 c27 23 148 139 269 258 279 276 352
345 363 345 5 0 12 -14 16 -31z m-1290 -51 c4 -13 10 -94 13 -180 5 -131 3
-158 -8 -158 -8 0 -67 55 -131 123 l-118 122 0 52 0 52 93 4 c50 1 104 4 118
5 20 1 28 -4 33 -20z m2096 -600 c0 -337 3 -738 7 -890 l6 -278 -129 0 c-71 0
-134 4 -139 8 -7 5 -11 290 -10 884 l0 877 75 4 c41 1 101 4 133 5 l57 2 0
-612z m854 597 c83 -18 141 -50 193 -109 149 -169 164 -461 32 -635 l-38 -49
30 -44 c16 -24 44 -65 64 -91 50 -69 66 -133 72 -279 7 -159 -11 -241 -70
-330 -46 -69 -148 -157 -227 -196 l-55 -27 -366 -3 -365 -3 4 123 c2 68 6 125
9 128 3 3 145 5 316 5 301 0 313 1 352 22 97 52 150 145 150 263 -1 105 -36
178 -109 224 -85 55 -96 56 -410 56 -160 0 -296 4 -303 8 -8 5 -11 45 -10 124
l1 117 316 3 317 3 41 28 c77 54 116 137 110 232 -5 82 -40 135 -118 179 l-55
31 -302 3 -303 3 0 115 0 114 328 0 c247 0 344 -4 396 -15z m-2199 -244 l-148
-150 -48 60 c-26 32 -73 87 -104 121 -53 59 -55 63 -34 70 12 5 101 13 198 18
169 10 255 20 268 34 4 3 9 4 11 1 3 -3 -61 -72 -143 -154z m-1111 -428 c3
-311 2 -576 -3 -598 -7 -33 -9 -35 -10 -12 0 16 -5 25 -11 22 -5 -3 -17 10
-27 29 -10 19 -51 95 -90 169 -40 75 -73 142 -73 149 0 8 -10 36 -23 64 -61
130 -88 234 -113 425 -19 148 -15 240 11 269 10 11 39 21 68 26 62 8 249 21
258 17 4 -1 9 -254 13 -560z m4021 522 c77 -8 161 -15 188 -15 46 0 47 -1 47
-31 0 -98 -90 -426 -169 -618 -36 -87 -169 -323 -207 -366 -14 -16 -23 -25
-20 -19 3 7 0 17 -8 23 -7 6 -21 30 -32 53 -10 24 -21 45 -25 48 -3 3 -24 41
-45 86 l-40 81 42 46 c72 80 79 104 78 257 0 99 -5 151 -18 195 -24 80 -56
155 -67 155 -5 0 -9 6 -9 13 0 8 -9 22 -20 32 -21 19 -21 19 37 46 68 32 85
33 268 14z m-3866 -126 c7 -13 58 -67 114 -121 l102 -96 4 -602 c2 -474 1
-602 -9 -598 -7 2 -65 53 -130 113 l-117 109 -2 563 c-2 542 4 740 19 682 4
-14 13 -36 19 -50z m1498 -1044 c2 -899 2 -905 -18 -905 -33 0 -308 50 -389
70 -111 28 -270 90 -400 155 -131 65 -253 143 -245 155 3 5 8 142 10 304 5
280 27 663 41 699 9 25 21 21 67 -21 23 -22 77 -71 119 -110 97 -88 246 -172
306 -172 39 0 45 4 94 65 28 36 55 65 59 65 3 0 10 -44 14 -97 8 -114 17 -143
44 -143 28 0 31 33 31 309 0 285 4 317 34 325 11 3 66 50 121 106 55 55 102
100 105 100 3 0 6 -407 7 -905z m1593 865 c13 -8 12 -14 -5 -47 -36 -67 -59
-73 -310 -73 -121 0 -229 3 -241 6 -19 5 -20 10 -14 45 15 80 10 79 299 79
146 0 262 -4 271 -10z m-25 -728 l80 -7 -1 -47 c0 -37 -7 -56 -30 -85 -57 -71
-68 -73 -353 -73 -201 0 -251 3 -243 13 5 6 13 50 17 97 11 129 -1 124 245
116 113 -4 241 -10 285 -14z m-730 -792 c88 -6 187 -15 219 -21 33 -6 95 -11
138 -12 74 -1 77 -2 51 -15 -90 -48 -448 -156 -554 -168 l-56 -6 -2 99 c-1 54
1 107 5 116 7 20 -3 20 199 7z"/>
<path d="M4712 3951 c-7 -4 24 -6 70 -4 116 6 128 11 28 12 -47 0 -91 -3 -98
-8z"/>
<path d="M7474 7298 c211 -317 339 -639 408 -1028 19 -108 22 -162 22 -400 1
-178 -4 -307 -12 -365 -86 -586 -334 -1093 -743 -1519 -125 -130 -182 -180
-370 -324 -374 -286 -822 -470 -1275 -524 -165 -20 -599 -16 -749 6 -293 42
-621 148 -870 280 -137 72 -369 222 -460 296 -41 34 -72 55 -69 48 8 -19 232
-216 275 -241 19 -12 42 -27 50 -34 7 -7 30 -26 49 -42 20 -16 72 -51 115 -78
86 -53 439 -221 519 -248 27 -8 73 -27 102 -40 46 -21 117 -41 376 -106 21 -5
70 -14 110 -20 40 -6 91 -14 113 -17 61 -9 450 -4 598 8 130 10 244 28 322 50
22 6 63 16 91 21 28 5 82 21 120 35 38 14 90 32 116 40 25 8 59 21 75 29 15 8
33 15 40 15 6 0 24 7 40 15 15 8 71 33 123 55 52 22 106 47 120 56 14 8 59 31
100 52 41 20 78 42 82 48 4 7 19 14 32 18 13 3 38 22 55 41 17 19 33 35 37 35
15 0 188 153 261 230 8 8 59 62 114 120 55 58 111 121 124 140 13 19 46 59 74
88 28 30 68 81 88 114 21 33 49 77 63 97 46 69 75 116 75 122 0 3 14 35 32 70
83 168 114 240 133 309 12 41 26 84 30 95 14 34 69 277 80 353 18 124 24 398
11 522 -6 63 -16 174 -21 245 -5 72 -12 144 -14 160 -8 49 -52 204 -81 285
-39 109 -198 442 -253 530 -26 41 -57 95 -70 120 -22 43 -50 84 -99 147 -13
15 -33 42 -45 60 -34 48 -139 183 -143 183 -2 0 43 -69 99 -152z"/>
<path d="M3580 2205 l0 -495 100 0 99 0 6 34 c4 19 5 104 3 190 l-3 156 198 0
197 0 0 96 0 97 -201 -5 c-199 -4 -200 -4 -195 16 3 12 6 64 6 116 l0 95 245
-3 245 -3 0 101 0 100 -350 0 -350 0 0 -495z"/>
<path d="M4578 2598 c-2 -57 -1 -280 0 -495 l4 -393 107 0 108 0 -4 253 c-3
206 -1 249 9 233 7 -10 28 -37 47 -60 19 -22 59 -75 89 -116 89 -121 163 -210
176 -210 6 0 23 21 39 46 33 55 269 353 280 353 4 1 8 -105 8 -234 1 -129 2
-241 3 -247 1 -9 32 -14 109 -16 l107 -3 -2 496 -3 495 -45 0 c-54 0 -72 -16
-186 -165 -38 -49 -99 -123 -137 -164 -37 -41 -91 -109 -120 -152 l-54 -78
-23 32 c-49 67 -210 265 -270 332 -34 39 -80 93 -102 122 -37 49 -77 73 -119
73 -16 0 -18 -12 -21 -102z"/>
<path d="M6038 2198 c1 -271 4 -492 5 -492 1 -1 110 2 242 5 265 6 305 14 391
72 139 93 146 308 13 406 l-47 34 33 31 c51 49 75 105 75 178 0 111 -72 201
-193 242 -39 13 -92 16 -285 16 l-237 0 3 -492z m424 302 c48 -14 78 -52 78
-99 0 -81 -53 -111 -197 -111 l-98 0 0 110 0 110 90 0 c50 0 107 -5 127 -10z
m32 -404 c40 -17 76 -60 76 -92 0 -13 -13 -38 -29 -56 l-29 -33 -137 -5 -137
-5 6 29 c3 16 6 62 6 102 l0 74 105 0 c67 0 118 -5 139 -14z"/>
<path d="M2954 2385 c-97 -42 -112 -168 -28 -234 18 -14 41 -21 72 -21 39 0
50 5 88 44 37 36 44 50 44 82 0 91 -98 162 -176 129z"/>
<path d="M7255 2381 c-52 -31 -84 -96 -71 -146 10 -40 64 -94 101 -101 45 -8
95 10 131 47 25 26 29 38 29 84 0 43 -5 59 -25 80 -52 56 -112 69 -165 36z"/>
</g>
</svg>
