<svg xmlns="http://www.w3.org/2000/svg" version="1.1" xmlns:xlink="http://www.w3.org/1999/xlink" xmlns:svgjs="http://svgjs.dev/svgjs" width="1920" height="1080" preserveAspectRatio="none" viewBox="0 0 1920 1080">
    <g mask="url(&quot;#SvgjsMask1021&quot;)" fill="none">
        <rect width="1920" height="1080" x="0" y="0" fill="rgba(25, 26, 27, 1)"></rect>
        <path d="M0,558.709C141.747,574.711,276.239,685.873,411.315,640.018C550.429,592.792,637.146,452.423,701.755,320.481C767.518,186.182,799.773,36.08,779.606,-112.09C759.351,-260.906,695.802,-404.823,588.704,-510.115C485.655,-611.426,341.222,-650.289,200.178,-681.745C66.775,-711.497,-71.802,-729.384,-201.531,-686.353C-328.916,-644.099,-432.508,-551.973,-513.555,-444.998C-591.061,-342.696,-621.68,-218.584,-650.653,-93.55C-682.17,42.461,-747.575,187.921,-689.655,314.955C-631.732,441.997,-487.312,506.903,-355.669,553.432C-241.565,593.761,-120.257,545.133,0,558.709" fill="#141516"></path>
        <path d="M1920 1549.2350000000001C2012.423 1541.0149999999999 2110.234 1547.618 2187.5389999999998 1496.299 2264.395 1445.278 2303.7200000000003 1356.578 2338.761 1271.242 2372.688 1188.619 2381.32 1102.196 2385.995 1013 2391.74 903.374 2439.103 775.4100000000001 2369.183 690.781 2299.477 606.4110000000001 2163.83 636.81 2056.702 614.435 1959.473 594.1279999999999 1865.828 543.7 1768.902 565.406 1669.333 587.704 1573.421 646.76 1521.127 734.375 1471.277 817.894 1522.395 925.173 1497.975 1019.322 1468.894 1131.44 1339.725 1220.232 1365.837 1333.078 1391.307 1443.151 1514.767 1505.714 1620.024 1546.771 1715.109 1583.8600000000001 1818.339 1558.276 1920 1549.2350000000001" fill="#1e1f20"></path>
    </g>
    <defs>
        <mask id="SvgjsMask1021">
            <rect width="1920" height="1080" fill="#ffffff"></rect>
        </mask>
    </defs>
</svg>